<svg xmlns="http://www.w3.org/2000/svg" width="792.4599999999999" height="544.94" viewBox="17110.153 10392.492 39.623 27.247"><style>
	.line {
		stroke: #333;
		stroke-width: .09;
		fill: none;
		stroke-linejoin: round;
		stroke-linecap: round;
	}
	.station {
		stroke: none;
	}
	.transit {
		stroke: #555;
		stroke-width: .05;
		fill: #fff;
	}
</style><g><path class="line U5" style="stroke: #DC143C;" d="M17129.733 10403.873L17130.365 10404.011"></path><path class="line U5" style="stroke: #DC143C;" d="M17130.365 10404.011L17131.341 10404.408"></path><path class="line U5" style="stroke: #DC143C;" d="M17131.341 10404.408L17132.501 10404.605"></path><path class="line U5" style="stroke: #DC143C;" d="M17132.501 10404.605L17133.269 10404.734"></path><path class="line U5" style="stroke: #DC143C;" d="M17133.269 10404.734L17134.277 10404.898"></path><path class="line U5" style="stroke: #DC143C;" d="M17134.277 10404.898L17135.19 10405.05"></path><path class="line U5" style="stroke: #DC143C;" d="M17135.19 10405.05L17136.233 10405.223"></path><path class="line U5" style="stroke: #DC143C;" d="M17136.233 10405.223L17137.244 10405.421"></path><path class="line U5" style="stroke: #DC143C;" d="M17137.244 10405.421L17138.506 10406.183"></path><path class="line U5" style="stroke: #DC143C;" d="M17138.506 10406.183L17139.39 10407.42"></path><path class="line U5" style="stroke: #DC143C;" d="M17139.39 10407.42L17141.459 10407.095"></path><path class="line U5" style="stroke: #DC143C;" d="M17141.459 10407.095L17142.761 10406.23"></path><path class="line U5" style="stroke: #DC143C;" d="M17142.761 10406.23L17144.08 10405.192"></path><path class="line U5" style="stroke: #DC143C;" d="M17144.08 10405.192L17145.227 10403.949"></path><path class="line U5" style="stroke: #DC143C;" d="M17145.227 10403.949L17145.374 10402.864"></path><path class="line U5" style="stroke: #DC143C;" d="M17145.374 10402.864L17145.948 10402.077"></path><path class="line U5" style="stroke: #DC143C;" d="M17145.948 10402.077L17146.854 10401.668"></path><path class="line U5" style="stroke: #DC143C;" d="M17146.854 10401.668L17147.888 10401.346"></path><path class="line U5" style="stroke: #DC143C;" d="M17147.888 10401.346L17149.176 10401.454"></path><path class="line U2" style="stroke: #2af;" d="M17129.513 10397.303L17129.65 10398.381"></path><path class="line U2" style="stroke: #2af;" d="M17129.65 10398.381L17129.691 10399.847"></path><path class="line U2" style="stroke: #2af;" d="M17129.691 10399.847L17129.557 10400.98"></path><path class="line U2" style="stroke: #2af;" d="M17129.557 10400.98L17129.593 10402.358"></path><path class="line U2" style="stroke: #2af;" d="M17129.593 10402.358L17129.421 10403.048"></path><path class="line U2" style="stroke: #2af;" d="M17129.421 10403.048L17129.733 10403.873"></path><path class="line U2" style="stroke: #2af;" d="M17129.733 10403.873L17129.576 10404.519"></path><path class="line U2" style="stroke: #2af;" d="M17129.576 10404.519L17129.384 10405.22"></path><path class="line U2" style="stroke: #2af;" d="M17129.384 10405.22L17128.797 10405.37"></path><path class="line U2" style="stroke: #2af;" d="M17128.797 10405.37L17128.094 10405.074"></path><path class="line U2" style="stroke: #2af;" d="M17128.094 10405.074L17127.614 10405.25"></path><path class="line U2" style="stroke: #2af;" d="M17127.614 10405.25L17127.114 10405.317"></path><path class="line U2" style="stroke: #2af;" d="M17127.114 10405.317L17126.541 10405.691"></path><path class="line U2" style="stroke: #2af;" d="M17126.541 10405.691L17126.251 10406.506"></path><path class="line U2" style="stroke: #2af;" d="M17126.251 10406.506L17126.181 10407.145"></path><path class="line U2" style="stroke: #2af;" d="M17126.181 10407.145L17125.208 10407.365"></path><path class="line U2" style="stroke: #2af;" d="M17125.208 10407.365L17124.447 10407.106"></path><path class="line U1" style="stroke: #000080;" d="M17124.47 10407.039L17123.46 10406.687"></path><path class="line U2" style="stroke: #2af;" d="M17124.423 10407.174L17123.413 10406.822"></path><path class="line U2" style="stroke: #2af;" d="M17123.436 10406.755L17122.514 10406.129"></path><path class="line U2" style="stroke: #2af;" d="M17122.514 10406.129L17121.574 10405.286"></path><path class="line U2" style="stroke: #2af;" d="M17121.574 10405.286L17120.573 10405.282"></path><path class="line U2" style="stroke: #2af;" d="M17120.573 10405.282L17120.04 10405.352"></path><path class="line U2" style="stroke: #2af;" d="M17120.04 10405.352L17119.258 10405.438"></path><path class="line U2" style="stroke: #2af;" d="M17119.258 10405.438L17118.061 10405.56"></path><path class="line U2" style="stroke: #2af;" d="M17118.061 10405.56L17117.161 10405.566"></path><path class="line U2" style="stroke: #2af;" d="M17117.161 10405.566L17115.968 10404.649"></path><path class="line U2" style="stroke: #2af;" d="M17115.968 10404.649L17115.245 10404.531"></path><path class="line U2" style="stroke: #2af;" d="M17115.245 10404.531L17114.43 10403.281"></path><path class="line U1" style="stroke: #000080;" d="M17122.016 10406.614L17122.447 10406.457"></path><path class="line U1" style="stroke: #000080;" d="M17122.447 10406.457L17123.436 10406.755"></path><path class="line U1" style="stroke: #000080;" d="M17124.447 10407.106L17125.114 10407.034"></path><path class="line U1" style="stroke: #000080;" d="M17125.114 10407.034L17126.181 10407.145"></path><path class="line U1" style="stroke: #000080;" d="M17126.181 10407.145L17127.015 10407.153"></path><path class="line U1" style="stroke: #000080;" d="M17127.015 10407.153L17127.698 10407.352"></path><path class="line U1" style="stroke: #000080;" d="M17127.698 10407.352L17129.019 10407.257"></path><path class="line U1" style="stroke: #000080;" d="M17129.019 10407.257L17130.166 10407.171"></path><path class="line U1" style="stroke: #000080;" d="M17130.166 10407.171L17131.001 10407.127"></path><path class="line U1" style="stroke: #000080;" d="M17131.001 10407.127L17132.178 10406.892"></path><path class="line U1" style="stroke: #000080;" d="M17132.178 10406.892L17132.828 10406.27"></path><path class="line U3" style="stroke: #000080;" d="M17114.432 10415.264L17115.514 10414.3"></path><path class="line U3" style="stroke: #000080;" d="M17115.514 10414.3L17116.888 10414.248"></path><path class="line U3" style="stroke: #000080;" d="M17116.888 10414.248L17118.021 10414.142"></path><path class="line U3" style="stroke: #000080;" d="M17118.021 10414.142L17118.728 10413.21"></path><path class="line U3" style="stroke: #000080;" d="M17118.728 10413.21L17119.274 10412.238"></path><path class="line U3" style="stroke: #000080;" d="M17119.274 10412.238L17120.415 10411.826"></path><path class="line U3" style="stroke: #000080;" d="M17120.415 10411.826L17120.916 10410.827"></path><path class="line U3" style="stroke: #000080;" d="M17120.916 10410.827L17120.793 10409.923"></path><path class="line U3" style="stroke: #000080;" d="M17120.793 10409.923L17121.01 10408.374"></path><path class="line U3" style="stroke: #000080;" d="M17121.01 10408.374L17121.872 10407.861"></path><path class="line U3" style="stroke: #000080;" d="M17121.872 10407.861L17122.494 10407.456"></path><path class="line U3" style="stroke: #000080;" d="M17122.494 10407.456L17122.874 10406.94"></path><path class="line U3" style="stroke: #000080;" d="M17122.874 10406.94L17123.436 10406.755"></path><path class="line U4" style="stroke: #32CD32;" d="M17123.503 10410.074L17123.347 10409.442"></path><path class="line U4" style="stroke: #32CD32;" d="M17123.347 10409.442L17123.209 10408.56"></path><path class="line U4" style="stroke: #32CD32;" d="M17123.209 10408.56L17123.495 10407.565"></path><path class="line U4" style="stroke: #32CD32;" d="M17123.495 10407.565L17124.447 10407.106"></path><path class="line U7" style="stroke: #FFD700;" d="M17136.864 10419.139L17135.881 10418.138"></path><path class="line U7" style="stroke: #FFD700;" d="M17135.881 10418.138L17135.036 10418.159"></path><path class="line U7" style="stroke: #FFD700;" d="M17135.036 10418.159L17133.968 10417.93"></path><path class="line U7" style="stroke: #FFD700;" d="M17133.968 10417.93L17133.203 10417.259"></path><path class="line U7" style="stroke: #FFD700;" d="M17133.203 10417.259L17132.745 10416.002"></path><path class="line U7" style="stroke: #FFD700;" d="M17132.745 10416.002L17132.892 10414.996"></path><path class="line U7" style="stroke: #FFD700;" d="M17132.892 10414.996L17132.848 10413.989"></path><path class="line U7" style="stroke: #FFD700;" d="M17132.848 10413.989L17132.441 10412.379"></path><path class="line U7" style="stroke: #FFD700;" d="M17132.441 10412.379L17132.192 10411.514"></path><path class="line U7" style="stroke: #FFD700;" d="M17132.192 10411.514L17131.958 10410.415"></path><path class="line U7" style="stroke: #FFD700;" d="M17131.958 10410.415L17131.484 10409.651"></path><path class="line U7" style="stroke: #FFD700;" d="M17131.484 10409.651L17130.608 10408.982"></path><path class="line U7" style="stroke: #FFD700;" d="M17130.608 10408.982L17129.132 10408.561"></path><path class="line U7" style="stroke: #FFD700;" d="M17129.132 10408.561L17128.065 10408.266"></path><path class="line U7" style="stroke: #FFD700;" d="M17128.065 10408.266L17127.504 10407.828"></path><path class="line U7" style="stroke: #FFD700;" d="M17127.504 10407.828L17127.015 10407.153"></path><path class="line U7" style="stroke: #FFD700;" d="M17127.015 10407.153L17125.862 10408.034"></path><path class="line U7" style="stroke: #FFD700;" d="M17125.862 10408.034L17124.929 10408.411"></path><path class="line U7" style="stroke: #FFD700;" d="M17124.929 10408.411L17124.039 10408.539"></path><path class="line U7" style="stroke: #FFD700;" d="M17124.039 10408.539L17123.209 10408.56"></path><path class="line U7" style="stroke: #FFD700;" d="M17123.209 10408.56L17122.33 10408.871"></path><path class="line U7" style="stroke: #FFD700;" d="M17122.33 10408.871L17121.543 10408.991"></path><path class="line U7" style="stroke: #FFD700;" d="M17121.543 10408.991L17121.01 10408.374"></path><path class="line U7" style="stroke: #FFD700;" d="M17121.01 10408.374L17120.424 10407.776"></path><path class="line U7" style="stroke: #FFD700;" d="M17120.424 10407.776L17120.284 10406.987"></path><path class="line U7" style="stroke: #FFD700;" d="M17120.284 10406.987L17120.219 10406.019"></path><path class="line U7" style="stroke: #FFD700;" d="M17120.219 10406.019L17120.04 10405.352"></path><path class="line U7" style="stroke: #FFD700;" d="M17120.04 10405.352L17120.217 10404.53"></path><path class="line U7" style="stroke: #FFD700;" d="M17120.217 10404.53L17120.062 10403.186"></path><path class="line U7" style="stroke: #FFD700;" d="M17120.062 10403.186L17119.695 10402.596"></path><path class="line U7" style="stroke: #FFD700;" d="M17119.695 10402.596L17119.025 10401.733"></path><path class="line U7" style="stroke: #FFD700;" d="M17119.025 10401.733L17118.381 10401.683"></path><path class="line U7" style="stroke: #FFD700;" d="M17118.381 10401.683L17117.216 10401.664"></path><path class="line U7" style="stroke: #FFD700;" d="M17117.216 10401.664L17116.319 10401.632"></path><path class="line U7" style="stroke: #FFD700;" d="M17116.319 10401.632L17114.993 10401.482"></path><path class="line U7" style="stroke: #FFD700;" d="M17114.993 10401.482L17113.684 10401.38"></path><path class="line U7" style="stroke: #FFD700;" d="M17113.684 10401.38L17112.327 10401.539"></path><path class="line U7" style="stroke: #FFD700;" d="M17112.327 10401.539L17111.269 10401.33"></path><path class="line U7" style="stroke: #FFD700;" d="M17111.269 10401.33L17110.753 10401.873"></path><path class="line U8" style="stroke: #FF00FF;" d="M17131.25 10411.708L17131.002 10410.95"></path><path class="line U8" style="stroke: #FF00FF;" d="M17131.002 10410.95L17130.728 10409.904"></path><path class="line U8" style="stroke: #FF00FF;" d="M17130.728 10409.904L17130.608 10408.982"></path><path class="line U8" style="stroke: #FF00FF;" d="M17130.608 10408.982L17130.442 10408.026"></path><path class="line U8" style="stroke: #FF00FF;" d="M17130.442 10408.026L17130.166 10407.171"></path><path class="line U8" style="stroke: #FF00FF;" d="M17130.166 10407.171L17129.441 10406.497"></path><path class="line U8" style="stroke: #FF00FF;" d="M17129.441 10406.497L17129.912 10405.504"></path><path class="line U8" style="stroke: #FF00FF;" d="M17129.912 10405.504L17130.104 10404.688"></path><path class="line U8" style="stroke: #FF00FF;" d="M17130.104 10404.688L17129.733 10403.873"></path><path class="line U8" style="stroke: #FF00FF;" d="M17129.733 10403.873L17128.879 10403.271"></path><path class="line U8" style="stroke: #FF00FF;" d="M17128.879 10403.271L17128.562 10402.611"></path><path class="line U8" style="stroke: #FF00FF;" d="M17128.562 10402.611L17128.196 10401.572"></path><path class="line U8" style="stroke: #FF00FF;" d="M17128.196 10401.572L17127.875 10400.893"></path><path class="line U8" style="stroke: #FF00FF;" d="M17127.875 10400.893L17127.46 10399.916"></path><path class="line U8" style="stroke: #FF00FF;" d="M17127.46 10399.916L17126.828 10399.395"></path><path class="line U8" style="stroke: #FF00FF;" d="M17126.828 10399.395L17126.12 10398.69"></path><path class="line U8" style="stroke: #FF00FF;" d="M17126.12 10398.69L17125.297 10397.624"></path><path class="line U8" style="stroke: #FF00FF;" d="M17125.297 10397.624L17124.98 10396.618"></path><path class="line U8" style="stroke: #FF00FF;" d="M17124.98 10396.618L17123.998 10396.224"></path><path class="line U8" style="stroke: #FF00FF;" d="M17123.998 10396.224L17123.032 10396.038"></path><path class="line U8" style="stroke: #FF00FF;" d="M17123.032 10396.038L17122.572 10395.407"></path><path class="line U8" style="stroke: #FF00FF;" d="M17122.572 10395.407L17121.918 10394.103"></path><path class="line U8" style="stroke: #FF00FF;" d="M17121.918 10394.103L17122.801 10393.092"></path><path class="line U9" style="stroke: #FFA500;" d="M17126.12 10398.69L17125.569 10399.531"></path><path class="line U9" style="stroke: #FFA500;" d="M17125.569 10399.531L17124.857 10400.261"></path><path class="line U9" style="stroke: #FFA500;" d="M17124.857 10400.261L17124.012 10400.888"></path><path class="line U9" style="stroke: #FFA500;" d="M17124.012 10400.888L17123.379 10401.713"></path><path class="line U9" style="stroke: #FFA500;" d="M17123.379 10401.713L17123.281 10402.351"></path><path class="line U9" style="stroke: #FFA500;" d="M17123.281 10402.351L17123.271 10403.271"></path><path class="line U9" style="stroke: #FFA500;" d="M17123.271 10403.271L17123.349 10404.44"></path><path class="line U9" style="stroke: #FFA500;" d="M17123.349 10404.44L17122.514 10406.129"></path><path class="line U9" style="stroke: #FFA500;" d="M17122.514 10406.129L17122.447 10406.457"></path><path class="line U9" style="stroke: #FFA500;" d="M17122.447 10406.457L17122.494 10407.456"></path><path class="line U9" style="stroke: #FFA500;" d="M17122.494 10407.456L17122.366 10408.174"></path><path class="line U9" style="stroke: #FFA500;" d="M17122.366 10408.174L17122.33 10408.871"></path><path class="line U9" style="stroke: #FFA500;" d="M17122.33 10408.871L17122.146 10410.3"></path><path class="line U9" style="stroke: #FFA500;" d="M17122.146 10410.3L17122.163 10411.137"></path><path class="line U9" style="stroke: #FFA500;" d="M17122.163 10411.137L17122.124 10412.023"></path><path class="line U9" style="stroke: #FFA500;" d="M17122.124 10412.023L17121.844 10412.632"></path><path class="line U9" style="stroke: #FFA500;" d="M17121.844 10412.632L17121.471 10413.302"></path><path class="line U55" style="stroke: #f00;" d="M17126.817 10404.597L17126.1 10404.084"></path><path class="line U55" style="stroke: #f00;" d="M17126.1 10404.084L17125.854 10403.346"></path><path class="line U6" style="stroke: #6495ED;" d="M17127.389 10415.796L17127.224 10414.833"></path><path class="line U6" style="stroke: #6495ED;" d="M17127.224 10414.833L17127.109 10413.677"></path><path class="line U6" style="stroke: #6495ED;" d="M17127.109 10413.677L17127.13 10412.846"></path><path class="line U6" style="stroke: #6495ED;" d="M17127.13 10412.846L17127.222 10412.009"></path><path class="line U6" style="stroke: #6495ED;" d="M17127.222 10412.009L17127.217 10411.396"></path><path class="line U6" style="stroke: #6495ED;" d="M17127.217 10411.396L17127.278 10410.205"></path><path class="line U6" style="stroke: #6495ED;" d="M17127.278 10410.205L17127.244 10408.993"></path><path class="line U6" style="stroke: #6495ED;" d="M17127.244 10408.993L17127.504 10407.828"></path><path class="line U6" style="stroke: #6495ED;" d="M17127.504 10407.828L17127.698 10407.352"></path><path class="line U6" style="stroke: #6495ED;" d="M17127.698 10407.352L17127.656 10406.094"></path><path class="line U6" style="stroke: #6495ED;" d="M17127.656 10406.094L17127.614 10405.25"></path><path class="line U6" style="stroke: #6495ED;" d="M17127.614 10405.25L17127.528 10404.829"></path><path class="line U6" style="stroke: #6495ED;" d="M17127.528 10404.829L17127.451 10404.06"></path><path class="line U6" style="stroke: #6495ED;" d="M17127.451 10404.06L17127.371 10403.295"></path><path class="line U6" style="stroke: #6495ED;" d="M17127.371 10403.295L17126.958 10402.529"></path><path class="line U6" style="stroke: #6495ED;" d="M17126.958 10402.529L17126.476 10401.894"></path><path class="line U6" style="stroke: #6495ED;" d="M17126.476 10401.894L17125.84 10401.174"></path><path class="line U6" style="stroke: #6495ED;" d="M17125.84 10401.174L17125.362 10400.721"></path><path class="line U6" style="stroke: #6495ED;" d="M17125.362 10400.721L17124.857 10400.261"></path><path class="line U6" style="stroke: #6495ED;" d="M17124.857 10400.261L17124.338 10399.774"></path><path class="line U6" style="stroke: #6495ED;" d="M17124.338 10399.774L17123.26 10398.768"></path><path class="line U6" style="stroke: #6495ED;" d="M17123.26 10398.768L17122.663 10398.214"></path><path class="line U6" style="stroke: #6495ED;" d="M17122.663 10398.214L17122.034 10397.811"></path><path class="line U6" style="stroke: #6495ED;" d="M17122.034 10397.811L17120.756 10397.29"></path><path class="line U6" style="stroke: #6495ED;" d="M17120.756 10397.29L17119.894 10396.675"></path><path class="line U6" style="stroke: #6495ED;" d="M17119.894 10396.675L17119.282 10395.983"></path><path class="line U6" style="stroke: #6495ED;" d="M17119.282 10395.983L17118.818 10395.141"></path><path class="line U6" style="stroke: #6495ED;" d="M17118.818 10395.141L17118.18 10393.963"></path><circle class="station transit" data-id="5766353" cx="17129.733" cy="10403.873" r="0.13" fill="#333"></circle><circle class="station" data-id="23333" cx="17130.365" cy="10404.011" r="0.1" fill="#DC143C"></circle><circle class="station" data-id="5842759" cx="17131.341" cy="10404.408" r="0.1" fill="#DC143C"></circle><circle class="station" data-id="4196777" cx="17132.501" cy="10404.605" r="0.1" fill="#DC143C"></circle><circle class="station" data-id="5757994" cx="17133.269" cy="10404.734" r="0.1" fill="#DC143C"></circle><circle class="station" data-id="5842758" cx="17134.277" cy="10404.898" r="0.1" fill="#DC143C"></circle><circle class="station" data-id="7721111" cx="17135.19" cy="10405.05" r="0.1" fill="#DC143C"></circle><circle class="station" data-id="5837155" cx="17136.233" cy="10405.223" r="0.1" fill="#DC143C"></circle><circle class="station" data-id="7721016" cx="17137.244" cy="10405.421" r="0.1" fill="#DC143C"></circle><circle class="station" data-id="6914398" cx="17138.506" cy="10406.183" r="0.1" fill="#DC143C"></circle><circle class="station" data-id="8435157" cx="17139.39" cy="10407.42" r="0.1" fill="#DC143C"></circle><circle class="station" data-id="7720980" cx="17141.459" cy="10407.095" r="0.1" fill="#DC143C"></circle><circle class="station" data-id="5763787" cx="17142.761" cy="10406.23" r="0.1" fill="#DC143C"></circle><circle class="station" data-id="1389346" cx="17144.08" cy="10405.192" r="0.1" fill="#DC143C"></circle><circle class="station" data-id="5837157" cx="17145.227" cy="10403.949" r="0.1" fill="#DC143C"></circle><circle class="station" data-id="5837156" cx="17145.374" cy="10402.864" r="0.1" fill="#DC143C"></circle><circle class="station" data-id="2302439" cx="17145.948" cy="10402.077" r="0.1" fill="#DC143C"></circle><circle class="station" data-id="2302436" cx="17146.854" cy="10401.668" r="0.1" fill="#DC143C"></circle><circle class="station" data-id="7721738" cx="17147.888" cy="10401.346" r="0.1" fill="#DC143C"></circle><circle class="station" data-id="5843153" cx="17149.176" cy="10401.454" r="0.1" fill="#DC143C"></circle><circle class="station" data-id="7721015" cx="17129.513" cy="10397.303" r="0.1" fill="#2af"></circle><circle class="station" data-id="7720942" cx="17129.65" cy="10398.381" r="0.1" fill="#2af"></circle><circle class="station" data-id="7721013" cx="17129.691" cy="10399.847" r="0.1" fill="#2af"></circle><circle class="station" data-id="7721090" cx="17129.557" cy="10400.98" r="0.1" fill="#2af"></circle><circle class="station" data-id="7720981" cx="17129.593" cy="10402.358" r="0.1" fill="#2af"></circle><circle class="station" data-id="7721088" cx="17129.421" cy="10403.048" r="0.1" fill="#2af"></circle><circle class="station" data-id="1645144" cx="17129.576" cy="10404.519" r="0.1" fill="#2af"></circle><circle class="station" data-id="4593882" cx="17129.384" cy="10405.22" r="0.1" fill="#2af"></circle><circle class="station" data-id="4593886" cx="17128.797" cy="10405.37" r="0.1" fill="#2af"></circle><circle class="station" data-id="7720988" cx="17128.094" cy="10405.074" r="0.1" fill="#2af"></circle><circle class="station transit" data-id="7720948" cx="17127.614" cy="10405.25" r="0.13" fill="#333"></circle><circle class="station" data-id="5710288" cx="17127.114" cy="10405.317" r="0.1" fill="#2af"></circle><circle class="station" data-id="5686717" cx="17126.541" cy="10405.691" r="0.1" fill="#2af"></circle><circle class="station" data-id="2355893" cx="17126.251" cy="10406.506" r="0.1" fill="#2af"></circle><circle class="station transit" data-id="7721012" cx="17126.181" cy="10407.145" r="0.13" fill="#333"></circle><circle class="station" data-id="7721744" cx="17125.208" cy="10407.365" r="0.1" fill="#2af"></circle><circle class="station transit" data-id="7721011" cx="17124.447" cy="10407.106" r="0.185" fill="#333"></circle><circle class="station transit" data-id="5885101" cx="17123.436" cy="10406.755" r="0.185" fill="#333"></circle><circle class="station transit" data-id="7721000" cx="17122.514" cy="10406.129" r="0.13" fill="#333"></circle><circle class="station" data-id="7721096" cx="17121.574" cy="10405.286" r="0.1" fill="#2af"></circle><circle class="station" data-id="7721097" cx="17120.573" cy="10405.282" r="0.1" fill="#2af"></circle><circle class="station transit" data-id="7721008" cx="17120.04" cy="10405.352" r="0.13" fill="#333"></circle><circle class="station" data-id="5873395" cx="17119.258" cy="10405.438" r="0.1" fill="#2af"></circle><circle class="station" data-id="5873394" cx="17118.061" cy="10405.56" r="0.1" fill="#2af"></circle><circle class="station" data-id="8433878" cx="17117.161" cy="10405.566" r="0.1" fill="#2af"></circle><circle class="station" data-id="8465463" cx="17115.968" cy="10404.649" r="0.1" fill="#2af"></circle><circle class="station" data-id="7720974" cx="17115.245" cy="10404.531" r="0.1" fill="#2af"></circle><circle class="station" data-id="8120820" cx="17114.43" cy="10403.281" r="0.1" fill="#2af"></circle><circle class="station" data-id="5885100" cx="17122.016" cy="10406.614" r="0.1" fill="#000080"></circle><circle class="station transit" data-id="1244521" cx="17122.447" cy="10406.457" r="0.13" fill="#333"></circle><circle class="station" data-id="5864581" cx="17125.114" cy="10407.034" r="0.1" fill="#000080"></circle><circle class="station transit" data-id="7721006" cx="17127.015" cy="10407.153" r="0.13" fill="#333"></circle><circle class="station transit" data-id="7720996" cx="17127.698" cy="10407.352" r="0.13" fill="#333"></circle><circle class="station" data-id="5736036" cx="17129.019" cy="10407.257" r="0.1" fill="#000080"></circle><circle class="station transit" data-id="7721264" cx="17130.166" cy="10407.171" r="0.13" fill="#333"></circle><circle class="station" data-id="5717197" cx="17131.001" cy="10407.127" r="0.1" fill="#000080"></circle><circle class="station" data-id="4593884" cx="17132.178" cy="10406.892" r="0.1" fill="#000080"></circle><circle class="station" data-id="8420881" cx="17132.828" cy="10406.27" r="0.1" fill="#000080"></circle><circle class="station" data-id="5147807" cx="17114.432" cy="10415.264" r="0.1" fill="#000080"></circle><circle class="station" data-id="5880427" cx="17115.514" cy="10414.3" r="0.1" fill="#000080"></circle><circle class="station" data-id="5147891" cx="17116.888" cy="10414.248" r="0.1" fill="#000080"></circle><circle class="station" data-id="5880428" cx="17118.021" cy="10414.142" r="0.1" fill="#000080"></circle><circle class="station" data-id="5679048" cx="17118.728" cy="10413.21" r="0.1" fill="#000080"></circle><circle class="station" data-id="7720970" cx="17119.274" cy="10412.238" r="0.1" fill="#000080"></circle><circle class="station" data-id="7721080" cx="17120.415" cy="10411.826" r="0.1" fill="#000080"></circle><circle class="station" data-id="7721079" cx="17120.916" cy="10410.827" r="0.1" fill="#000080"></circle><circle class="station" data-id="7720997" cx="17120.793" cy="10409.923" r="0.1" fill="#000080"></circle><circle class="station transit" data-id="7721110" cx="17121.01" cy="10408.374" r="0.13" fill="#333"></circle><circle class="station" data-id="7720960" cx="17121.872" cy="10407.861" r="0.1" fill="#000080"></circle><circle class="station transit" data-id="7721108" cx="17122.494" cy="10407.456" r="0.13" fill="#333"></circle><circle class="station" data-id="7720985" cx="17122.874" cy="10406.94" r="0.1" fill="#000080"></circle><circle class="station" data-id="177616" cx="17123.503" cy="10410.074" r="0.1" fill="#32CD32"></circle><circle class="station" data-id="7720978" cx="17123.347" cy="10409.442" r="0.1" fill="#32CD32"></circle><circle class="station transit" data-id="7721107" cx="17123.209" cy="10408.56" r="0.13" fill="#333"></circle><circle class="station" data-id="7720977" cx="17123.495" cy="10407.565" r="0.1" fill="#32CD32"></circle><circle class="station" data-id="8419692" cx="17136.864" cy="10419.139" r="0.1" fill="#FFD700"></circle><circle class="station" data-id="1206986" cx="17135.881" cy="10418.138" r="0.1" fill="#FFD700"></circle><circle class="station" data-id="5829684" cx="17135.036" cy="10418.159" r="0.1" fill="#FFD700"></circle><circle class="station" data-id="5689162" cx="17133.968" cy="10417.93" r="0.1" fill="#FFD700"></circle><circle class="station" data-id="5668728" cx="17133.203" cy="10417.259" r="0.1" fill="#FFD700"></circle><circle class="station" data-id="5689161" cx="17132.745" cy="10416.002" r="0.1" fill="#FFD700"></circle><circle class="station" data-id="7721085" cx="17132.892" cy="10414.996" r="0.1" fill="#FFD700"></circle><circle class="station" data-id="7721084" cx="17132.848" cy="10413.989" r="0.1" fill="#FFD700"></circle><circle class="station" data-id="5683976" cx="17132.441" cy="10412.379" r="0.1" fill="#FFD700"></circle><circle class="station" data-id="7720936" cx="17132.192" cy="10411.514" r="0.1" fill="#FFD700"></circle><circle class="station" data-id="7721083" cx="17131.958" cy="10410.415" r="0.1" fill="#FFD700"></circle><circle class="station" data-id="1655775" cx="17131.484" cy="10409.651" r="0.1" fill="#FFD700"></circle><circle class="station transit" data-id="7721260" cx="17130.608" cy="10408.982" r="0.13" fill="#333"></circle><circle class="station" data-id="7721082" cx="17129.132" cy="10408.561" r="0.1" fill="#FFD700"></circle><circle class="station" data-id="6015042" cx="17128.065" cy="10408.266" r="0.1" fill="#FFD700"></circle><circle class="station transit" data-id="8413317" cx="17127.504" cy="10407.828" r="0.13" fill="#333"></circle><circle class="station" data-id="7721002" cx="17125.862" cy="10408.034" r="0.1" fill="#FFD700"></circle><circle class="station" data-id="5885769" cx="17124.929" cy="10408.411" r="0.1" fill="#FFD700"></circle><circle class="station" data-id="7721066" cx="17124.039" cy="10408.539" r="0.1" fill="#FFD700"></circle><circle class="station transit" data-id="7721109" cx="17122.33" cy="10408.871" r="0.13" fill="#333"></circle><circle class="station" data-id="7721074" cx="17121.543" cy="10408.991" r="0.1" fill="#FFD700"></circle><circle class="station" data-id="7721075" cx="17120.424" cy="10407.776" r="0.1" fill="#FFD700"></circle><circle class="station" data-id="5885099" cx="17120.284" cy="10406.987" r="0.1" fill="#FFD700"></circle><circle class="station" data-id="5873906" cx="17120.219" cy="10406.019" r="0.1" fill="#FFD700"></circle><circle class="station" data-id="7721098" cx="17120.217" cy="10404.53" r="0.1" fill="#FFD700"></circle><circle class="station" data-id="8415123" cx="17120.062" cy="10403.186" r="0.1" fill="#FFD700"></circle><circle class="station" data-id="7720998" cx="17119.695" cy="10402.596" r="0.1" fill="#FFD700"></circle><circle class="station" data-id="7721100" cx="17119.025" cy="10401.733" r="0.1" fill="#FFD700"></circle><circle class="station" data-id="7721101" cx="17118.381" cy="10401.683" r="0.1" fill="#FFD700"></circle><circle class="station" data-id="7721102" cx="17117.216" cy="10401.664" r="0.1" fill="#FFD700"></circle><circle class="station" data-id="7721103" cx="17116.319" cy="10401.632" r="0.1" fill="#FFD700"></circle><circle class="station" data-id="7721104" cx="17114.993" cy="10401.482" r="0.1" fill="#FFD700"></circle><circle class="station" data-id="7721743" cx="17113.684" cy="10401.38" r="0.1" fill="#FFD700"></circle><circle class="station" data-id="7721105" cx="17112.327" cy="10401.539" r="0.1" fill="#FFD700"></circle><circle class="station" data-id="7721106" cx="17111.269" cy="10401.33" r="0.1" fill="#FFD700"></circle><circle class="station" data-id="7720995" cx="17110.753" cy="10401.873" r="0.1" fill="#FFD700"></circle><circle class="station" data-id="7720994" cx="17131.25" cy="10411.708" r="0.1" fill="#FF00FF"></circle><circle class="station" data-id="5725006" cx="17131.002" cy="10410.95" r="0.1" fill="#FF00FF"></circle><circle class="station" data-id="4599283" cx="17130.728" cy="10409.904" r="0.1" fill="#FF00FF"></circle><circle class="station" data-id="5722632" cx="17130.442" cy="10408.026" r="0.1" fill="#FF00FF"></circle><circle class="station" data-id="5717198" cx="17129.441" cy="10406.497" r="0.1" fill="#FF00FF"></circle><circle class="station" data-id="4593881" cx="17129.912" cy="10405.504" r="0.1" fill="#FF00FF"></circle><circle class="station" data-id="7721017" cx="17130.104" cy="10404.688" r="0.1" fill="#FF00FF"></circle><circle class="station" data-id="1650240" cx="17128.879" cy="10403.271" r="0.1" fill="#FF00FF"></circle><circle class="station" data-id="5812428" cx="17128.562" cy="10402.611" r="0.1" fill="#FF00FF"></circle><circle class="station" data-id="1650242" cx="17128.196" cy="10401.572" r="0.1" fill="#FF00FF"></circle><circle class="station" data-id="5838065" cx="17127.875" cy="10400.893" r="0.1" fill="#FF00FF"></circle><circle class="station" data-id="7720999" cx="17127.46" cy="10399.916" r="0.1" fill="#FF00FF"></circle><circle class="station" data-id="7721091" cx="17126.828" cy="10399.395" r="0.1" fill="#FF00FF"></circle><circle class="station transit" data-id="7720992" cx="17126.12" cy="10398.69" r="0.13" fill="#333"></circle><circle class="station" data-id="542273" cx="17125.297" cy="10397.624" r="0.1" fill="#FF00FF"></circle><circle class="station" data-id="7720982" cx="17124.98" cy="10396.618" r="0.1" fill="#FF00FF"></circle><circle class="station" data-id="7720990" cx="17123.998" cy="10396.224" r="0.1" fill="#FF00FF"></circle><circle class="station" data-id="7720956" cx="17123.032" cy="10396.038" r="0.1" fill="#FF00FF"></circle><circle class="station" data-id="7721001" cx="17122.572" cy="10395.407" r="0.1" fill="#FF00FF"></circle><circle class="station" data-id="4730399" cx="17121.918" cy="10394.103" r="0.1" fill="#FF00FF"></circle><circle class="station" data-id="7720993" cx="17122.801" cy="10393.092" r="0.1" fill="#FF00FF"></circle><circle class="station" data-id="7720965" cx="17125.569" cy="10399.531" r="0.1" fill="#FFA500"></circle><circle class="station transit" data-id="7721007" cx="17124.857" cy="10400.261" r="0.13" fill="#333"></circle><circle class="station" data-id="5926294" cx="17124.012" cy="10400.888" r="0.1" fill="#FFA500"></circle><circle class="station" data-id="7720933" cx="17123.379" cy="10401.713" r="0.1" fill="#FFA500"></circle><circle class="station" data-id="7720986" cx="17123.281" cy="10402.351" r="0.1" fill="#FFA500"></circle><circle class="station" data-id="7720950" cx="17123.271" cy="10403.271" r="0.1" fill="#FFA500"></circle><circle class="station" data-id="7720976" cx="17123.349" cy="10404.44" r="0.1" fill="#FFA500"></circle><circle class="station" data-id="7721069" cx="17122.366" cy="10408.174" r="0.1" fill="#FFA500"></circle><circle class="station" data-id="7721009" cx="17122.146" cy="10410.3" r="0.1" fill="#FFA500"></circle><circle class="station" data-id="7721076" cx="17122.163" cy="10411.137" r="0.1" fill="#FFA500"></circle><circle class="station" data-id="7721077" cx="17122.124" cy="10412.023" r="0.1" fill="#FFA500"></circle><circle class="station" data-id="7721078" cx="17121.844" cy="10412.632" r="0.1" fill="#FFA500"></circle><circle class="station" data-id="7720987" cx="17121.471" cy="10413.302" r="0.1" fill="#FFA500"></circle><circle class="station" data-id="5699655" cx="17126.817" cy="10404.597" r="0.1" fill="#f00"></circle><circle class="station" data-id="6266990" cx="17126.1" cy="10404.084" r="0.1" fill="#f00"></circle><circle class="station" data-id="5688523" cx="17125.854" cy="10403.346" r="0.1" fill="#f00"></circle><circle class="station" data-id="5730255" cx="17127.389" cy="10415.796" r="0.1" fill="#6495ED"></circle><circle class="station" data-id="5865403" cx="17127.224" cy="10414.833" r="0.1" fill="#6495ED"></circle><circle class="station" data-id="5865402" cx="17127.109" cy="10413.677" r="0.1" fill="#6495ED"></circle><circle class="station" data-id="5865400" cx="17127.13" cy="10412.846" r="0.1" fill="#6495ED"></circle><circle class="station" data-id="5865399" cx="17127.222" cy="10412.009" r="0.1" fill="#6495ED"></circle><circle class="station" data-id="7721005" cx="17127.217" cy="10411.396" r="0.1" fill="#6495ED"></circle><circle class="station" data-id="7721737" cx="17127.278" cy="10410.205" r="0.1" fill="#6495ED"></circle><circle class="station" data-id="5734448" cx="17127.244" cy="10408.993" r="0.1" fill="#6495ED"></circle><circle class="station" data-id="7720991" cx="17127.656" cy="10406.094" r="0.1" fill="#6495ED"></circle><circle class="station" data-id="8450289" cx="17127.528" cy="10404.829" r="0.1" fill="#6495ED"></circle><circle class="station" data-id="5708903" cx="17127.451" cy="10404.06" r="0.1" fill="#6495ED"></circle><circle class="station" data-id="5829216" cx="17127.371" cy="10403.295" r="0.1" fill="#6495ED"></circle><circle class="station" data-id="7721092" cx="17126.958" cy="10402.529" r="0.1" fill="#6495ED"></circle><circle class="station" data-id="7720971" cx="17126.476" cy="10401.894" r="0.1" fill="#6495ED"></circle><circle class="station" data-id="7721093" cx="17125.84" cy="10401.174" r="0.1" fill="#6495ED"></circle><circle class="station" data-id="7720938" cx="17125.362" cy="10400.721" r="0.1" fill="#6495ED"></circle><circle class="station" data-id="7721094" cx="17124.338" cy="10399.774" r="0.1" fill="#6495ED"></circle><circle class="station" data-id="5926296" cx="17123.26" cy="10398.768" r="0.1" fill="#6495ED"></circle><circle class="station" data-id="5926293" cx="17122.663" cy="10398.214" r="0.1" fill="#6495ED"></circle><circle class="station" data-id="5926295" cx="17122.034" cy="10397.811" r="0.1" fill="#6495ED"></circle><circle class="station" data-id="5926584" cx="17120.756" cy="10397.29" r="0.1" fill="#6495ED"></circle><circle class="station" data-id="7720963" cx="17119.894" cy="10396.675" r="0.1" fill="#6495ED"></circle><circle class="station" data-id="5926583" cx="17119.282" cy="10395.983" r="0.1" fill="#6495ED"></circle><circle class="station" data-id="8448808" cx="17118.818" cy="10395.141" r="0.1" fill="#6495ED"></circle><circle class="station" data-id="7720968" cx="17118.18" cy="10393.963" r="0.1" fill="#6495ED"></circle></g></svg>